P3 
# PPM (Portable Pixel Map) format image.
# Always begins with text 'P3', then
# comment lines that all begin with pound sign, then
# a line of text giving integer values for rows, columns, pixel-max value (usually 255),
# then RGB pixel values separated by whitespace
#
#  Jack Tumblin
#  2011.09.02
#
#  3 rows, 5 columns, RGB pixel values between 0 and 255.
3 5 255
1   2   3   11  12  13  21  22  23  31  32  33  41  42  43  
101 102 103 111 112 113 121 122 123 131 132 133 141 142 143 
201 202 203 211 212 213 221 222 223 231 232 233 241 242 243 
